<svg width="27" height="22" viewBox="0 0 27 22" fill="none" xmlns="http://www.w3.org/2000/svg">
<path fill-rule="evenodd" clip-rule="evenodd" d="M0 1.53228C0 0.810749 0.584918 0.22583 1.30645 0.22583H25.6935C26.4151 0.22583 27 0.810749 27 1.53228C27 2.25381 26.4151 2.83873 25.6935 2.83873H1.30645C0.584919 2.83873 0 2.25381 0 1.53228ZM0 11.1129C0 10.3914 0.584918 9.80648 1.30645 9.80648H25.6935C26.4151 9.80648 27 10.3914 27 11.1129C27 11.8345 26.4151 12.4194 25.6935 12.4194H1.30645C0.584919 12.4194 0 11.8345 0 11.1129ZM1.30645 19.3871C0.584918 19.3871 0 19.972 0 20.6936C0 21.4151 0.584919 22 1.30645 22H25.6935C26.4151 22 27 21.4151 27 20.6936C27 19.972 26.4151 19.3871 25.6935 19.3871H1.30645Z" fill="#173A56"/>
</svg>
